<svg xmlns="http://www.w3.org/2000/svg" version="1.1" xmlns:xlink="http://www.w3.org/1999/xlink" xmlns:svgjs="http://svgjs.dev/svgjs" viewBox="0 0 12.744346827292041 12.69373489416001"><g transform="matrix(1,0,0,1,1.0599175542710206,10.511014605513989)"><rect width="12.744346827292041" height="12.744346827292041" x="-1.0599175542710206" y="-10.536320572080005" fill="#404040"></rect><g><path d=" M 0.15380859375 0.8642578125000002 Q 0.2314453125 0.9038085937500002 0.31640625 0.9235839843750002 Q 0.4013671875 0.9433593750000002 0.474609375 0.9433593750000002 Q 0.558837890625 0.9433593750000002 0.5980224609375 0.9191894531250002 Q 0.63720703125 0.8950195312500002 0.63720703125 0.8532714843750002 Q 0.63720703125 0.8400878906250002 0.6324462890625 0.8261718750000002 Q 0.627685546875 0.8122558593750002 0.6141357421875 0.7987060546875002 Q 0.6005859375 0.7851562500000002 0.5767822265625 0.7716064453125002 Q 0.552978515625 0.7580566406250002 0.514892578125 0.7448730468750002 L 0.3837890625 0.7001953125000002 Q 0.2431640625 0.6518554687500002 0.172119140625 0.5694580078125002 Q 0.10107421875 0.4870605468750002 0.10107421875 0.3735351562500002 Q 0.10107421875 0.3002929687500002 0.1318359375 0.23254394531250022 Q 0.16259765625 0.16479492187500022 0.224853515625 0.11315917968750022 Q 0.287109375 0.06152343750000022 0.3819580078125 0.030761718750000222 Q 0.476806640625 2.220446049250313e-16 0.604248046875 2.220446049250313e-16 Q 0.667236328125 2.220446049250313e-16 0.72509765625 0.007324218750000222 Q 0.782958984375 0.014648437500000222 0.8338623046875 0.026367187500000222 Q 0.884765625 0.03808593750000022 0.92724609375 0.05310058593750022 Q 0.9697265625 0.06811523437500022 1.001953125 0.08276367187500022 L 0.9228515625 0.22558593750000022 Q 0.8994140625 0.21093750000000022 0.8734130859375 0.19995117187500022 Q 0.847412109375 0.18896484375000022 0.8214111328125 0.18164062500000022 Q 0.79541015625 0.17431640625000022 0.7705078125 0.17065429687500022 Q 0.74560546875 0.16699218750000022 0.72509765625 0.16699218750000022 Q 0.68994140625 0.16699218750000022 0.66357421875 0.17614746093750022 Q 0.63720703125 0.18530273437500022 0.6192626953125 0.20031738281250022 Q 0.601318359375 0.21533203125000022 0.5921630859375 0.23400878906250022 Q 0.5830078125 0.2526855468750002 0.5830078125 0.2709960937500002 Q 0.5830078125 0.2871093750000002 0.5906982421875 0.3021240234375002 Q 0.598388671875 0.3171386718750002 0.6170654296875 0.3314208984375002 Q 0.6357421875 0.3457031250000002 0.6661376953125 0.3599853515625002 Q 0.696533203125 0.3742675781250002 0.741943359375 0.3896484375000002 L 0.829833984375 0.4189453125000002 Q 0.97265625 0.4665527343750002 1.048095703125 0.5500488281250002 Q 1.12353515625 0.6335449218750002 1.12353515625 0.7521972656250002 Q 1.12353515625 0.8327636718750002 1.0872802734375 0.9008789062500002 Q 1.051025390625 0.9689941406250002 0.979248046875 1.0184326171875002 Q 0.907470703125 1.0678710937500002 0.8009033203125 1.0953369140625002 Q 0.6943359375 1.1228027343750002 0.5537109375 1.1228027343750002 Q 0.486328125 1.1228027343750002 0.4237060546875 1.1158447265625002 Q 0.361083984375 1.1088867187500002 0.3013916015625 1.0949707031250002 Q 0.24169921875 1.0810546875000002 0.183837890625 1.0598144531250002 Q 0.1259765625 1.0385742187500002 0.068115234375 1.0100097656250002 L 0.15380859375 0.8642578125000002 M 1.333740234375 0.017578125000000222 L 1.757080078125 0.017578125000000222 L 1.757080078125 0.4738769531250002 L 2.06982421875 0.4738769531250002 L 2.06982421875 0.017578125000000222 L 2.493896484375 0.017578125000000222 L 2.4931640625 1.1059570312500002 L 2.06982421875 1.1059570312500002 L 2.06982421875 0.6416015625000002 L 1.757080078125 0.6416015625000002 L 1.757080078125 1.1059570312500002 L 1.333740234375 1.1059570312500002 L 1.333740234375 0.017578125000000222 M 2.7158203125 0.5595703125000002 Q 2.7158203125 0.4357910156250002 2.75537109375 0.3328857421875002 Q 2.794921875 0.22998046875000022 2.873291015625 0.15600585937500022 Q 2.95166015625 0.08203125000000022 3.06884765625 0.04101562500000022 Q 3.18603515625 2.220446049250313e-16 3.34130859375 2.220446049250313e-16 Q 3.49658203125 2.220446049250313e-16 3.61376953125 0.04101562500000022 Q 3.73095703125 0.08203125000000022 3.809326171875 0.15600585937500022 Q 3.8876953125 0.22998046875000022 3.92724609375 0.3328857421875002 Q 3.966796875 0.4357910156250002 3.966796875 0.5595703125000002 Q 3.966796875 0.6848144531250002 3.92724609375 0.7888183593750002 Q 3.8876953125 0.8928222656250002 3.809326171875 0.9667968750000002 Q 3.73095703125 1.0407714843750002 3.61376953125 1.0817871093750002 Q 3.49658203125 1.1228027343750002 3.34130859375 1.1228027343750002 Q 3.18603515625 1.1228027343750002 3.06884765625 1.0817871093750002 Q 2.95166015625 1.0407714843750002 2.873291015625 0.9667968750000002 Q 2.794921875 0.8928222656250002 2.75537109375 0.7888183593750002 Q 2.7158203125 0.6848144531250002 2.7158203125 0.5595703125000002 M 3.34130859375 0.9711914062500002 Q 3.38525390625 0.9711914062500002 3.4189453125 0.9558105468750002 Q 3.45263671875 0.9404296875000002 3.475341796875 0.8957519531250002 Q 3.498046875 0.8510742187500002 3.509765625 0.7705078125000002 Q 3.521484375 0.6899414062500002 3.521484375 0.5595703125000002 Q 3.521484375 0.4306640625000002 3.509765625 0.3508300781250002 Q 3.498046875 0.2709960937500002 3.475341796875 0.22705078125000022 Q 3.45263671875 0.18310546875000022 3.4189453125 0.16772460937500022 Q 3.38525390625 0.15234375000000022 3.34130859375 0.15234375000000022 Q 3.29736328125 0.15234375000000022 3.2633056640625 0.16772460937500022 Q 3.229248046875 0.18310546875000022 3.20654296875 0.22705078125000022 Q 3.183837890625 0.2709960937500002 3.172119140625 0.3508300781250002 Q 3.160400390625 0.4306640625000002 3.160400390625 0.5595703125000002 Q 3.160400390625 0.6899414062500002 3.172119140625 0.7705078125000002 Q 3.183837890625 0.8510742187500002 3.20654296875 0.8957519531250002 Q 3.229248046875 0.9404296875000002 3.2633056640625 0.9558105468750002 Q 3.29736328125 0.9711914062500002 3.34130859375 0.9711914062500002 M 4.07958984375 0.017578125000000222 L 4.543212890625 0.017578125000000222 L 4.729248046875 0.7170410156250002 L 4.8486328125 0.3046875000000002 L 4.760009765625 0.017578125000000222 L 5.2236328125 0.017578125000000222 L 5.39501953125 0.7170410156250002 L 5.5751953125 0.017578125000000222 L 5.766357421875 0.016845703125000222 L 5.4404296875 1.1059570312500002 L 5.095458984375 1.1052246093750002 L 4.934326171875 0.5830078125000002 L 4.774658203125 1.1059570312500002 L 4.4296875 1.1052246093750002 L 4.07958984375 0.017578125000000222 M 6.384521484375 0.017578125000000222 L 6.960205078125 0.017578125000000222 Q 7.081787109375 0.017578125000000222 7.1729736328125 0.03808593750000022 Q 7.26416015625 0.05859375000000022 7.3253173828125 0.09631347656250022 Q 7.386474609375 0.13403320312500022 7.417236328125 0.18713378906250022 Q 7.447998046875 0.24023437500000022 7.447998046875 0.3054199218750002 Q 7.447998046875 0.3706054687500002 7.4117431640625 0.4281005859375002 Q 7.37548828125 0.4855957031250002 7.305908203125 0.5273437500000002 Q 7.420166015625 0.5603027343750002 7.4765625 0.6240234375000002 Q 7.532958984375 0.6877441406250002 7.532958984375 0.7800292968750002 Q 7.532958984375 0.8430175781250002 7.5025634765625 0.9016113281250002 Q 7.47216796875 0.9602050781250002 7.4117431640625 1.0056152343750002 Q 7.351318359375 1.0510253906250002 7.260498046875 1.0784912109375002 Q 7.169677734375 1.1059570312500002 7.048095703125 1.1059570312500002 L 6.384521484375 1.1059570312500002 L 6.384521484375 0.017578125000000222 M 6.853271484375 0.4599609375000002 Q 6.913330078125 0.4599609375000002 6.954345703125 0.4486083984375002 Q 6.995361328125 0.4372558593750002 7.0198974609375 0.4174804687500002 Q 7.04443359375 0.3977050781250002 7.0550537109375 0.3720703125000002 Q 7.065673828125 0.3464355468750002 7.065673828125 0.3186035156250002 Q 7.065673828125 0.2907714843750002 7.0550537109375 0.2651367187500002 Q 7.04443359375 0.23950195312500022 7.0198974609375 0.22009277343750022 Q 6.995361328125 0.20068359375000022 6.954345703125 0.18896484375000022 Q 6.913330078125 0.17724609375000022 6.853271484375 0.17724609375000022 L 6.80859375 0.17724609375000022 L 6.807861328125 0.4599609375000002 L 6.853271484375 0.4599609375000002 M 6.853271484375 0.9462890625000002 Q 6.91845703125 0.9462890625000002 6.963134765625 0.9323730468750002 Q 7.0078125 0.9184570312500002 7.03564453125 0.8942871093750002 Q 7.0634765625 0.8701171875000002 7.075927734375 0.8375244140625002 Q 7.08837890625 0.8049316406250002 7.08837890625 0.7675781250000002 Q 7.08837890625 0.7346191406250002 7.0751953125 0.7031250000000002 Q 7.06201171875 0.6716308593750002 7.0360107421875 0.6470947265625002 Q 7.010009765625 0.6225585937500002 6.971923828125 0.6075439453125002 Q 6.933837890625 0.5925292968750002 6.884033203125 0.5925292968750002 L 6.807861328125 0.5925292968750002 L 6.807861328125 0.9462890625000002 L 6.853271484375 0.9462890625000002 M 7.742431640625 0.017578125000000222 L 8.16650390625 0.017578125000000222 L 8.165771484375 1.1059570312500002 L 7.742431640625 1.1059570312500002 L 7.742431640625 0.017578125000000222 M 8.864501953125 0.17724609375000022 L 8.429443359375 0.17724609375000022 L 8.429443359375 0.017578125000000222 L 9.424072265625 0.017578125000000222 L 8.930419921875 0.9448242187500002 L 9.381591796875 0.9448242187500002 L 9.381591796875 1.1059570312500002 L 8.35400390625 1.1059570312500002 L 8.864501953125 0.17724609375000022 M 10.02392578125 0.17724609375000022 L 9.5888671875 0.17724609375000022 L 9.5888671875 0.017578125000000222 L 10.58349609375 0.017578125000000222 L 10.08984375 0.9448242187500002 L 10.541015625 0.9448242187500002 L 10.541015625 1.1059570312500002 L 9.513427734375 1.1059570312500002 L 10.02392578125 0.17724609375000022" fill="#bab9b4" fill-rule="nonzero"></path></g><g></g><g clip-path="url(&quot;#SvgjsClipPath1002&quot;)"><g clip-path="url(&quot;#baa0a4dd0-985b-4280-898e-36290661b1ca3c769648-5488-4b16-b9ff-f8546533a9dc&quot;)"><path d=" M 2.90634261446991 -8.352922034352412 C 2.90634261446991 -8.168550411427889 3.055796588437702 -8.019096437460098 3.2401682113622243 -8.019096437460098 C 3.424507652121809 -8.019096437460098 3.573961626089601 -8.168550411427889 3.573961626089601 -8.352922034352412 C 3.573961626089601 -8.537293657276933 3.424507652121809 -8.686747631244726 3.2401682113622243 -8.686747631244726 C 3.055796588437702 -8.686747631244726 2.90634261446991 -8.537293657276933 2.90634261446991 -8.352922034352412" fill="#813bad" transform="matrix(1,0,0,1,0,0)" fill-rule="nonzero"></path></g><g clip-path="url(&quot;#baa0a4dd0-985b-4280-898e-36290661b1ca3c769648-5488-4b16-b9ff-f8546533a9dc&quot;)"><path d=" M 2.9080160870466383 0.0729158429786434 C 2.9080160870466383 0.25728746590316476 3.0574700610144303 0.4067414398709577 3.2418416839389526 0.4067414398709577 C 3.4261811246985374 0.4067414398709577 3.5756350986663294 0.25728746590316476 3.5756350986663294 0.0729158429786434 C 3.5756350986663294 -0.11145577994587796 3.4261811246985374 -0.2609097539136709 3.2418416839389526 -0.2609097539136709 C 3.0574700610144303 -0.2609097539136709 2.9080160870466383 -0.11145577994587796 2.9080160870466383 0.0729158429786434" fill="#813bad" transform="matrix(1,0,0,1,0,0)" fill-rule="nonzero"></path></g><g clip-path="url(&quot;#baa0a4dd0-985b-4280-898e-36290661b1ca3c769648-5488-4b16-b9ff-f8546533a9dc&quot;)"><path d=" M 7.379920998043304 -7.379475909335665 C 7.379920998043304 -7.379475909335665 6.852970229363582 -8.228441420375793 4.829355698120093 -8.639182391467724 C 3.9792959934721033 -8.811743159860338 3.3952218820290674 -8.739301106586975 3.307782939895026 -8.728037348858997 C 3.1837850583924623 -8.712074995050207 2.867337830566171 -8.68726254588372 2.867337830566171 -8.229406885323906 C 2.867337830566171 -7.419349611692705 2.8884815129298316 -0.6926334965445768 2.8884815129298316 0.043469162061219535 C 2.8884815129298316 0.1765102319111005 2.9831936243396537 0.39081126822710743 3.2277780778614495 0.4334848189336711 C 3.570228494956901 0.49321491705688913 5.634231643196424 0.5964553021750358 6.19252784052486 0.561119285074124" fill="none" transform="matrix(1,0,0,1,0,0)" fill-rule="nonzero" stroke-dasharray="none" stroke-miterlimit="10" stroke-linejoin="miter" stroke-linecap="butt" stroke-width="0.03894041957386487" stroke="#813bad"></path></g><g clip-path="url(&quot;#baa0a4dd0-985b-4280-898e-36290661b1ca3c769648-5488-4b16-b9ff-f8546533a9dc&quot;)"><path d=" M 6.12732677436234 0.5448672917808999 C 7.435885782868884 0.5448672917808999 8.496674303524863 -0.5159212288750776 8.496674303524863 -1.824480237381624 C 8.496674303524863 -3.1330392458881695 7.435885782868884 -4.193827766544147 6.12732677436234 -4.193827766544147 C 4.818767765855794 -4.193827766544147 3.7579792451998157 -3.1330392458881695 3.7579792451998157 -1.824480237381624 C 3.7579792451998157 -0.5159212288750776 4.818767765855794 0.5448672917808999 6.12732677436234 0.5448672917808999 M 6.135919412400539 -1.0825204247572806 C 5.715298516672924 -1.0825204247572806 5.3743284791645785 -1.4234904622656277 5.3743284791645785 -1.844111357993242 C 5.3743284791645785 -2.264700071555919 5.715298516672924 -2.605670109064265 6.135919412400539 -2.605670109064265 C 6.556508125963217 -2.605670109064265 6.897478163471563 -2.264700071555919 6.897478163471563 -1.844111357993242 C 6.897478163471563 -1.4234904622656277 6.556508125963217 -1.0825204247572824 6.135919412400539 -1.0825204247572824" fill="#813bad" transform="matrix(1,0,0,1,0,0)" fill-rule="nonzero"></path></g><g clip-path="url(&quot;#baa0a4dd0-985b-4280-898e-36290661b1ca3c769648-5488-4b16-b9ff-f8546533a9dc&quot;)"><path d=" M 6.13546886209142 -0.6766067784059118 C 6.772868820835195 -0.6766067784059118 7.291452226631277 -1.1951901842019925 7.291452226631277 -1.832590142945767 C 7.291452226631277 -2.4700222838544788 6.772868820835195 -2.9886056896505613 6.13546886209142 -2.9886056896505613 C 5.498036721182709 -2.9886056896505613 4.979485497551564 -2.4700222838544788 4.979485497551564 -1.832590142945767 C 4.979485497551564 -1.1951901842019925 5.498036721182709 -0.6766067784059118 6.13546886209142 -0.6766067784059118 M 6.163499527751616 -1.222609388728383 L 6.185190306919207 -1.4084292090750736 C 6.185814910464847 -1.4135638255063085 6.184360340906831 -1.4187350103843794 6.181150549579537 -1.4227910743780026 C 6.1779407582522445 -1.4268471383716257 6.173242298371964 -1.4294512505803656 6.168101577337618 -1.4300234417478546 L 6.023185288625953 -1.4469190783398194 C 6.01805550767515 -1.4475170967813824 6.012898293963991 -1.4460525426770623 6.0088484608728985 -1.4428476822130225 C 6.004798627781806 -1.4396428217489827 6.002188009254184 -1.434960253768665 6.001591055953174 -1.429830348758232 C 5.994317886677394 -1.3675900417699207 5.98698035307174 -1.3053175526166747 5.979771548125835 -1.2430772456283652 C 5.832534504764746 -1.2821633662199776 5.705093854626581 -1.3746065884939185 5.622227695674894 -1.5024333128562803 L 5.793147173655717 -1.5764844743764979 C 5.802971322590427 -1.5808067684576983 5.807479910306029 -1.5922361819023463 5.80325237344596 -1.6021014776664115 L 5.745163565734533 -1.7359792838046575 C 5.743107027093179 -1.7407167307400657 5.739252529986909 -1.7444430121513816 5.734448246989229 -1.746338169012275 C 5.729643963991549 -1.7482333258731693 5.724283554159511 -1.7481420705656587 5.719546562444618 -1.7460844835948999 C 5.661779576382564 -1.7210467592738539 5.60398040815557 -1.695944670622933 5.546213422093515 -1.6709713106317592 C 5.505915646853989 -1.8181626409015195 5.522267571303859 -1.975113556197038 5.592040824963915 -2.1108371409917472 L 5.741945349240826 -2.0000017649484487 C 5.750615921189447 -1.9936359314375238 5.762801331543484 -1.995477410215937 5.76920364294253 -2.0041210820603954 L 5.855902395283021 -2.1214572554209825 C 5.862293746416693 -2.1301148437479123 5.860464714025529 -2.142313193632294 5.851815260336011 -2.148715549122688 L 5.700623449461617 -2.2604520257842244 C 5.8087555236502 -2.370450665539158 5.950324867208408 -2.434332262939259 6.103447607979027 -2.442216893348843 L 6.082690111594611 -2.2566223481567125 C 6.081577381022674 -2.245945335233767 6.0892471733985865 -2.2363545107487477 6.099907569835949 -2.2350924798138063 L 6.2449525872073615 -2.2189370330153935 C 6.255639004918338 -2.2177704701271654 6.265254280685021 -2.225471327215751 6.266450273385329 -2.2361544912567295 L 6.287465227089242 -2.4240339701593943 C 6.436533015077789 -2.385801558214145 6.566870783072956 -2.2911538111341967 6.650319136754801 -2.160751678809156 L 6.478144554341431 -2.0871510675980574 C 6.468302857059623 -2.0828641375897963 6.463729653755108 -2.071466969479797 6.467878443726503 -2.0615662464730793 L 6.525291425974251 -1.9273988008504004 C 6.527323982850417 -1.9226463185820561 6.531162880714012 -1.918897096652902 6.535962070225845 -1.916977420848169 C 6.540761259737678 -1.9150577450434358 6.546126821590043 -1.9151251830862055 6.550876247099228 -1.9171648724004093 L 6.724885212914011 -1.9915700377349355 C 6.739141911981137 -1.9390487445576223 6.746350716927043 -1.8856585329270095 6.746350716927043 -1.832590142945767 C 6.746217379526559 -1.734640960922122 6.722530432553904 -1.638160251002299 6.677287790972058 -1.5512858392307383 C 6.627273693956401 -1.5886489356343008 6.577251881133789 -1.6260017025758637 6.527222355704247 -1.663344137665776 C 6.518598338613881 -1.6697633704147492 6.506405981412634 -1.6679928155909556 6.49996406216877 -1.659385731254412 L 6.412686030859414 -1.5424679260380048 C 6.406259784363231 -1.5338523011466156 6.408015733118516 -1.5216614110177158 6.416612254981737 -1.5152096323362994 C 6.467073889603077 -1.4775564993599177 6.517471159894541 -1.4398711842185996 6.567964976680817 -1.402218051242217 C 6.459092712698681 -1.292637779631466 6.316879725841732 -1.2294641898599803 6.163499527751616 -1.222609388728383" fill="#bab9b4" transform="matrix(1,0,0,1,0,0)" fill-rule="nonzero"></path></g><g clip-path="url(&quot;#baa0a4dd0-985b-4280-898e-36290661b1ca3c769648-5488-4b16-b9ff-f8546533a9dc&quot;)"><path d=" M 6.13546886209142 -0.6766067784059118 C 6.772868820835195 -0.6766067784059118 7.291452226631277 -1.1951901842019925 7.291452226631277 -1.832590142945767 C 7.291452226631277 -2.4700222838544788 6.772868820835195 -2.9886056896505613 6.13546886209142 -2.9886056896505613 C 5.498036721182709 -2.9886056896505613 4.979485497551564 -2.4700222838544788 4.979485497551564 -1.832590142945767 C 4.979485497551564 -1.1951901842019925 5.498036721182709 -0.6766067784059118 6.13546886209142 -0.6766067784059118 Z M 6.163499527751616 -1.222609388728383 L 6.185190306919207 -1.4084292090750736 C 6.185814910464847 -1.4135638255063085 6.184360340906831 -1.4187350103843794 6.181150549579537 -1.4227910743780026 C 6.1779407582522445 -1.4268471383716257 6.173242298371964 -1.4294512505803656 6.168101577337618 -1.4300234417478546 L 6.023185288625953 -1.4469190783398194 C 6.01805550767515 -1.4475170967813824 6.012898293963991 -1.4460525426770623 6.0088484608728985 -1.4428476822130225 C 6.004798627781806 -1.4396428217489827 6.002188009254184 -1.434960253768665 6.001591055953174 -1.429830348758232 C 5.994317886677394 -1.3675900417699207 5.98698035307174 -1.3053175526166747 5.979771548125835 -1.2430772456283652 C 5.832534504764746 -1.2821633662199776 5.705093854626581 -1.3746065884939185 5.622227695674894 -1.5024333128562803 L 5.793147173655717 -1.5764844743764979 C 5.802971322590427 -1.5808067684576983 5.807479910306029 -1.5922361819023463 5.80325237344596 -1.6021014776664115 L 5.745163565734533 -1.7359792838046575 C 5.743107027093179 -1.7407167307400657 5.739252529986909 -1.7444430121513816 5.734448246989229 -1.746338169012275 C 5.729643963991549 -1.7482333258731693 5.724283554159511 -1.7481420705656587 5.719546562444618 -1.7460844835948999 C 5.661779576382564 -1.7210467592738539 5.60398040815557 -1.695944670622933 5.546213422093515 -1.6709713106317592 C 5.505915646853989 -1.8181626409015195 5.522267571303859 -1.975113556197038 5.592040824963915 -2.1108371409917472 L 5.741945349240826 -2.0000017649484487 C 5.750615921189447 -1.9936359314375238 5.762801331543484 -1.995477410215937 5.76920364294253 -2.0041210820603954 L 5.855902395283021 -2.1214572554209825 C 5.862293746416693 -2.1301148437479123 5.860464714025529 -2.142313193632294 5.851815260336011 -2.148715549122688 L 5.700623449461617 -2.2604520257842244 C 5.8087555236502 -2.370450665539158 5.950324867208408 -2.434332262939259 6.103447607979027 -2.442216893348843 L 6.082690111594611 -2.2566223481567125 C 6.081577381022674 -2.245945335233767 6.0892471733985865 -2.2363545107487477 6.099907569835949 -2.2350924798138063 L 6.2449525872073615 -2.2189370330153935 C 6.255639004918338 -2.2177704701271654 6.265254280685021 -2.225471327215751 6.266450273385329 -2.2361544912567295 L 6.287465227089242 -2.4240339701593943 C 6.436533015077789 -2.385801558214145 6.566870783072956 -2.2911538111341967 6.650319136754801 -2.160751678809156 L 6.478144554341431 -2.0871510675980574 C 6.468302857059623 -2.0828641375897963 6.463729653755108 -2.071466969479797 6.467878443726503 -2.0615662464730793 L 6.525291425974251 -1.9273988008504004 C 6.527323982850417 -1.9226463185820561 6.531162880714012 -1.918897096652902 6.535962070225845 -1.916977420848169 C 6.540761259737678 -1.9150577450434358 6.546126821590043 -1.9151251830862055 6.550876247099228 -1.9171648724004093 L 6.724885212914011 -1.9915700377349355 C 6.739141911981137 -1.9390487445576223 6.746350716927043 -1.8856585329270095 6.746350716927043 -1.832590142945767 C 6.746217379526559 -1.734640960922122 6.722530432553904 -1.638160251002299 6.677287790972058 -1.5512858392307383 C 6.627273693956401 -1.5886489356343008 6.577251881133789 -1.6260017025758637 6.527222355704247 -1.663344137665776 C 6.518598338613881 -1.6697633704147492 6.506405981412634 -1.6679928155909556 6.49996406216877 -1.659385731254412 L 6.412686030859414 -1.5424679260380048 C 6.406259784363231 -1.5338523011466156 6.408015733118516 -1.5216614110177158 6.416612254981737 -1.5152096323362994 C 6.467073889603077 -1.4775564993599177 6.517471159894541 -1.4398711842185996 6.567964976680817 -1.402218051242217 C 6.459092712698681 -1.292637779631466 6.316879725841732 -1.2294641898599803 6.163499527751616 -1.222609388728383 Z" fill="none" transform="matrix(1,0,0,1,0,0)" fill-rule="nonzero" stroke-dasharray="none" stroke-miterlimit="10" stroke-linejoin="round" stroke-linecap="round" stroke-width="0.03894041957386487" stroke="#813bad"></path></g><g clip-path="url(&quot;#baa0a4dd0-985b-4280-898e-36290661b1ca3c769648-5488-4b16-b9ff-f8546533a9dc&quot;)"><path d=" M 6.1355010442563565 -4.955547428439857 C 6.990902988283901 -4.955547428439857 7.6842677318532555 -5.648976536339085 7.6842677318532555 -6.504378480366629 C 7.6842677318532555 -7.359780424394173 6.990902988283901 -8.053209532293401 6.1355010442563565 -8.053209532293401 C 5.280066918063875 -8.053209532293401 4.586637810164648 -7.359780424394174 4.586637810164648 -6.504378480366629 C 4.586637810164648 -5.648976536339085 5.280066918063875 -4.955547428439857 6.1355010442563565 -4.955547428439857 M 6.13546886209142 -5.806154229891776 C 5.749862161815347 -5.806154229891776 5.437244611616567 -6.1187717800905554 5.437244611616567 -6.504378480366629 C 5.437244611616567 -6.889985180642703 5.749862161815347 -7.202602730841482 6.13546886209142 -7.202602730841482 C 6.521075562367494 -7.202602730841482 6.833693112566273 -6.889985180642703 6.833693112566273 -6.504378480366629 C 6.833693112566273 -6.118771780090556 6.521075562367494 -5.806154229891776 6.13546886209142 -5.806154229891776" fill="#813bad" transform="matrix(1,0,0,1,0,0)" fill-rule="nonzero"></path></g><g clip-path="url(&quot;#baa0a4dd0-985b-4280-898e-36290661b1ca3c769648-5488-4b16-b9ff-f8546533a9dc&quot;)"><path d=" M 4.682476297347268 0.08450142235599145 C 5.8981253956804665 0.8891199101128251 7.556182715403684 0.6668055147274892 8.237575693616446 -0.5041747386730471 C 8.80887348557946 -1.4859560444084972 8.606029299981056 -3.202037807513265 7.390348019482918 -4.0066562952700995 C 6.174698921149719 -4.8113069651918705 4.583033407691695 -4.547735034357199 3.835248623213741 -3.417980134241062 C 3.0874960209007245 -2.288257416289861 3.4668271990140678 -0.7201170654008422 4.682476297347268 0.08450142235599145 Z" fill="none" transform="matrix(1,0,0,1,0,0)" fill-rule="nonzero" stroke-dasharray="none" stroke-miterlimit="10" stroke-linejoin="miter" stroke-linecap="butt" stroke-width="0.03894041957386487" stroke="#813bad"></path></g><g clip-path="url(&quot;#baa0a4dd0-985b-4280-898e-36290661b1ca3c769648-5488-4b16-b9ff-f8546533a9dc&quot;)"><path d=" M 9.135393731031057 0.7790247238630812 L 9.135393731031057 -9.088187956669843 C 9.135393731031057 -9.277065082685558 8.980854975003206 -9.43157165654847 8.79201003115243 -9.43157165654847 L 2.9645923330060215 -9.43157165654847 C 2.7757152069903093 -9.43157165654847 2.621208633127395 -9.277065082685558 2.621208633127395 -9.088187956669843 L 2.621208633127395 0.7790247238630812 C 2.621208633127395 0.9679018498787926 2.7757152069903093 1.1224084237417067 2.9645923330060215 1.1224084237417067 L 8.79201003115243 1.1224084237417067 C 8.980854975003206 1.1224084237417067 9.135393731031057 0.9679018498787926 9.135393731031057 0.7790247238630812 Z M 5.771906944797244 0.06567485586780109 C 5.5830620009464695 0.06567485586780109 5.428523244918618 -0.0888639001600513 5.428523244918618 -0.2777088440108244 L 5.428523244918618 -7.946622202021797 C 5.428523244918618 -8.135467145872573 5.583062000946468 -8.290005901900425 5.771906944797244 -8.290005901900425 L 6.5044373830950235 -8.290005901900425 C 6.693314509110737 -8.290005901900425 6.84782108297365 -8.135467145872573 6.84782108297365 -7.946622202021797 L 6.84782108297365 -0.2777088440108244 C 6.84782108297365 -0.08886390016004775 6.693314509110737 0.06567485586780109 6.5044373830950235 0.06567485586780109 Z" fill="none" transform="matrix(1,0,0,1,0,0)" fill-rule="nonzero" stroke-dasharray="none" stroke-miterlimit="10" stroke-linejoin="miter" stroke-linecap="butt" stroke-width="0.03894041957386487" stroke="#813bad"></path></g><g clip-path="url(&quot;#baa0a4dd0-985b-4280-898e-36290661b1ca3c769648-5488-4b16-b9ff-f8546533a9dc&quot;)"><path d=" M 6.13546886209142 -5.348813483970955 C 6.772901003000132 -5.348813483970955 7.291452226631277 -5.867364707602099 7.291452226631277 -6.504796848510811 C 7.291452226631277 -7.142228989419523 6.772901003000132 -7.660812395215604 6.13546886209142 -7.660812395215604 C 5.4980689033476455 -7.660812395215604 4.979485497551564 -7.142228989419523 4.979485497551564 -6.504796848510811 C 4.979485497551564 -5.8673647076021 5.4980689033476455 -5.348813483970955 6.13546886209142 -5.348813483970955 M 6.163499527751616 -5.894816094293427 L 6.185190306919207 -6.080635914640117 C 6.186436281607666 -6.09132480204104 6.178788883641488 -6.1010028650038866 6.168101577337618 -6.102262329477835 L 6.023153106461017 -6.119125783904863 C 6.012476020596644 -6.12035265081757 6.002818734036541 -6.112710297369858 6.0015588737882375 -6.102037054323276 L 5.979771548125835 -5.915283951193409 C 5.832531815358449 -5.954364410761784 5.705089308294799 -6.046808980017046 5.622227695674894 -6.174640018421323 L 5.793147173655717 -6.248691179941542 C 5.802971322590427 -6.253013474022742 5.807479910306029 -6.26444288746739 5.80325237344596 -6.274308183231455 L 5.745163565734533 -6.408185989369702 C 5.743107027093179 -6.41292343630511 5.739252529986909 -6.416649717716425 5.7344482469892295 -6.418544874577319 C 5.729643963991549 -6.420440031438213 5.724283554159511 -6.4203487761307025 5.719546562444618 -6.418291189159945 C 5.661779576382564 -6.393253464838898 5.603980408155571 -6.368151376187976 5.546213422093515 -6.343178016196804 C 5.5059061134221565 -6.490368565606131 5.522258403571732 -6.647322991002487 5.592040824963915 -6.78304384655679 L 5.741945349240826 -6.67224065267843 C 5.746094159958498 -6.669145800411154 5.751307419554258 -6.667836607558865 5.756426175979499 -6.6686041188528495 C 5.761544932404739 -6.669371630146835 5.766144963428978 -6.672152237295157 5.76920364294253 -6.676327787625439 L 5.855902395283021 -6.793663960986027 C 5.862293746416693 -6.802321549312956 5.860464714025529 -6.814519899197338 5.851815260336011 -6.820922254687732 L 5.700623449461617 -6.932658731349269 C 5.8087555236502 -7.0426573711042035 5.950357049373345 -7.106538968504303 6.103479790143965 -7.114423598913888 L 6.082722293759549 -6.928861235886694 C 6.082134931593842 -6.923725185541988 6.083617655994642 -6.918566723687609 6.086842612897309 -6.914526468691571 C 6.0900675697999755 -6.910486213695535 6.094769081940333 -6.907897008422506 6.099907569835949 -6.907331367543788 L 6.2449525872073615 -6.8911759207453755 C 6.255633112053406 -6.889990194697502 6.265254772611552 -6.89768176167063 6.266450273385329 -6.908361196821774 C 6.273433803176676 -6.970987689789329 6.280417332968021 -7.033614182756883 6.287465227089242 -7.096240675724438 C 6.436533015077789 -7.05800826377919 6.566870783072956 -6.963360516699241 6.650319136754801 -6.8329583843742 L 6.478144554341431 -6.759357773163102 C 6.468302857059623 -6.755070843154841 6.463729653755108 -6.743673675044841 6.467878443726503 -6.733772952038125 L 6.525291425974251 -6.599605506415445 C 6.527323982850417 -6.594853024147101 6.531162880714012 -6.591103802217948 6.535962070225846 -6.589184126413214 C 6.540761259737678 -6.58726445060848 6.546126821590043 -6.58733188865125 6.550876247099229 -6.589371577965454 C 6.608868508315844 -6.6141518449670045 6.666892951697395 -6.638932111968554 6.724885212914011 -6.663776743299978 C 6.739141911981138 -6.611255450122667 6.746350716927043 -6.557865238492054 6.746350716927043 -6.5047968485108125 C 6.746350716927043 -6.407156160091716 6.722535914873605 -6.3103522079609835 6.6772877909720725 -6.223492544795809 L 6.527222355870476 -6.3355508431067165 C 6.523083371151581 -6.3386422958249256 6.517885453940984 -6.339962099745097 6.512773009771073 -6.339219678690908 C 6.507660565601162 -6.338477257636717 6.503052755065403 -6.335733481446414 6.49996406216877 -6.331592436819456 L 6.412686030859414 -6.2146746316030494 C 6.4095945781412045 -6.210535646884155 6.408274774221033 -6.205337729673559 6.409017195275222 -6.200225285503647 C 6.4097596163294135 -6.195112841333735 6.412503392519717 -6.190505030797977 6.416644437146674 -6.187416337901345 L 6.567964976680817 -6.074424756807263 C 6.459092712698681 -5.96484448519651 6.316879725841732 -5.901670895425026 6.163499527751616 -5.894816094293428" fill="#bab9b4" transform="matrix(1,0,0,1,0,0)" fill-rule="nonzero"></path></g><g clip-path="url(&quot;#baa0a4dd0-985b-4280-898e-36290661b1ca3c769648-5488-4b16-b9ff-f8546533a9dc&quot;)"><path d=" M 6.13546886209142 -5.348813483970955 C 6.772901003000132 -5.348813483970955 7.291452226631277 -5.867364707602099 7.291452226631277 -6.504796848510811 C 7.291452226631277 -7.142228989419523 6.772901003000132 -7.660812395215604 6.13546886209142 -7.660812395215604 C 5.4980689033476455 -7.660812395215604 4.979485497551564 -7.142228989419523 4.979485497551564 -6.504796848510811 C 4.979485497551564 -5.8673647076021 5.4980689033476455 -5.348813483970955 6.13546886209142 -5.348813483970955 Z M 6.163499527751616 -5.894816094293427 L 6.185190306919207 -6.080635914640117 C 6.186436281607666 -6.09132480204104 6.178788883641488 -6.1010028650038866 6.168101577337618 -6.102262329477835 L 6.023153106461017 -6.119125783904863 C 6.012476020596644 -6.12035265081757 6.002818734036541 -6.112710297369858 6.0015588737882375 -6.102037054323276 L 5.979771548125835 -5.915283951193409 C 5.832531815358449 -5.954364410761784 5.705089308294799 -6.046808980017046 5.622227695674894 -6.174640018421323 L 5.793147173655717 -6.248691179941542 C 5.802971322590427 -6.253013474022742 5.807479910306029 -6.26444288746739 5.80325237344596 -6.274308183231455 L 5.745163565734533 -6.408185989369702 C 5.743107027093179 -6.41292343630511 5.739252529986909 -6.416649717716425 5.7344482469892295 -6.418544874577319 C 5.729643963991549 -6.420440031438213 5.724283554159511 -6.4203487761307025 5.719546562444618 -6.418291189159945 C 5.661779576382564 -6.393253464838898 5.603980408155571 -6.368151376187976 5.546213422093515 -6.343178016196804 C 5.5059061134221565 -6.490368565606131 5.522258403571732 -6.647322991002487 5.592040824963915 -6.78304384655679 L 5.741945349240826 -6.67224065267843 C 5.746094159958498 -6.669145800411154 5.751307419554258 -6.667836607558865 5.756426175979499 -6.6686041188528495 C 5.761544932404739 -6.669371630146835 5.766144963428978 -6.672152237295157 5.76920364294253 -6.676327787625439 L 5.855902395283021 -6.793663960986027 C 5.862293746416693 -6.802321549312956 5.860464714025529 -6.814519899197338 5.851815260336011 -6.820922254687732 L 5.700623449461617 -6.932658731349269 C 5.8087555236502 -7.0426573711042035 5.950357049373345 -7.106538968504303 6.103479790143965 -7.114423598913888 L 6.082722293759549 -6.928861235886694 C 6.082134931593842 -6.923725185541988 6.083617655994642 -6.918566723687609 6.086842612897309 -6.914526468691571 C 6.0900675697999755 -6.910486213695535 6.094769081940333 -6.907897008422506 6.099907569835949 -6.907331367543788 L 6.2449525872073615 -6.8911759207453755 C 6.255633112053406 -6.889990194697502 6.265254772611552 -6.89768176167063 6.266450273385329 -6.908361196821774 C 6.273433803176676 -6.970987689789329 6.280417332968021 -7.033614182756883 6.287465227089242 -7.096240675724438 C 6.436533015077789 -7.05800826377919 6.566870783072956 -6.963360516699241 6.650319136754801 -6.8329583843742 L 6.478144554341431 -6.759357773163102 C 6.468302857059623 -6.755070843154841 6.463729653755108 -6.743673675044841 6.467878443726503 -6.733772952038125 L 6.525291425974251 -6.599605506415445 C 6.527323982850417 -6.594853024147101 6.531162880714012 -6.591103802217948 6.535962070225846 -6.589184126413214 C 6.540761259737678 -6.58726445060848 6.546126821590043 -6.58733188865125 6.550876247099229 -6.589371577965454 C 6.608868508315844 -6.6141518449670045 6.666892951697395 -6.638932111968554 6.724885212914011 -6.663776743299978 C 6.739141911981138 -6.611255450122667 6.746350716927043 -6.557865238492054 6.746350716927043 -6.5047968485108125 C 6.746350716927043 -6.407156160091716 6.722535914873605 -6.3103522079609835 6.6772877909720725 -6.223492544795809 L 6.527222355870476 -6.3355508431067165 C 6.523083371151581 -6.3386422958249256 6.517885453940984 -6.339962099745097 6.512773009771073 -6.339219678690908 C 6.507660565601162 -6.338477257636717 6.503052755065403 -6.335733481446414 6.49996406216877 -6.331592436819456 L 6.412686030859414 -6.2146746316030494 C 6.4095945781412045 -6.210535646884155 6.408274774221033 -6.205337729673559 6.409017195275222 -6.200225285503647 C 6.4097596163294135 -6.195112841333735 6.412503392519717 -6.190505030797977 6.416644437146674 -6.187416337901345 L 6.567964976680817 -6.074424756807263 C 6.459092712698681 -5.96484448519651 6.316879725841732 -5.901670895425026 6.163499527751616 -5.894816094293428 Z" fill="none" transform="matrix(1,0,0,1,0,0)" fill-rule="nonzero" stroke-dasharray="none" stroke-miterlimit="10" stroke-linejoin="round" stroke-linecap="round" stroke-width="0.03894041957386487" stroke="#813bad"></path></g><g clip-path="url(&quot;#baa0a4dd0-985b-4280-898e-36290661b1ca3c769648-5488-4b16-b9ff-f8546533a9dc&quot;)"><path d=" M 8.660449340889654 0.25040048260663106 L 8.660449340889654 -8.560464816031631 L 8.249965827117219 -8.970980511969003 L 4.254582232343872 -8.970980511969003 L 4.254582232343872 0.6613667288531229 L 8.245621234850713 0.6613667288531229 Z M 5.772196584281678 0.06396920112613635 C 5.58338382259584 0.06396920112613635 5.4289416130628005 -0.09047300840690298 5.4289416130628005 -0.27925358792780486 L 5.4289416130628005 -7.945109640269756 C 5.4289416130628005 -8.133890219790658 5.58338382259584 -8.288332429323695 5.772196584281678 -8.288332429323695 L 6.5044373830950235 -8.288332429323695 C 6.693217962615925 -8.288332429323695 6.847692354313902 -8.133890219790658 6.847692354313902 -7.945109640269756 L 6.847692354313902 -0.27925358792780486 C 6.847692354313902 -0.09047300840690298 6.693217962615925 0.06396920112613635 6.5044373830950235 0.06396920112613635 Z" fill="none" transform="matrix(1,0,0,1,0,0)" fill-rule="nonzero" stroke-dasharray="none" stroke-miterlimit="10" stroke-linejoin="miter" stroke-linecap="butt" stroke-width="0.03894041957386487" stroke="#813bad"></path></g><g clip-path="url(&quot;#baa0a4dd0-985b-4280-898e-36290661b1ca3c769648-5488-4b16-b9ff-f8546533a9dc&quot;)"><path d=" M 2.971672409292179 -8.869638874582142 C 2.914748271395203 -8.869630337028507 2.8601531470486714 -8.892239581558279 2.819901702675806 -8.932491025931146 C 2.7796502583029405 -8.972742470304011 2.757041013773169 -9.027337594650541 2.757049551326803 -9.084261732547517 C 2.757049551326803 -9.202794663966896 2.853139477872802 -9.298884590512895 2.971672409292179 -9.298884590512895 C 3.090205340711557 -9.298884590512895 3.186295267257555 -9.202794663966896 3.186295267257555 -9.084261732547517 C 3.186295267257555 -8.96572880112814 3.090205340711557 -8.869638874582142 2.971672409292179 -8.869638874582142 Z" fill="none" transform="matrix(1,0,0,1,0,0)" fill-rule="nonzero" stroke-dasharray="none" stroke-miterlimit="4" stroke-linejoin="miter" stroke-linecap="butt" stroke-width="0.05149146389932545" stroke="#813bad"></path></g><g clip-path="url(&quot;#caa0a4dd0-985b-4280-898e-36290661b1ca3c769648-5488-4b16-b9ff-f8546533a9dc&quot;)"><path d=" M 4.051866775405216 -7.372395833049508 L 4.051866775405216 -0.9099274741997299" fill="none" transform="matrix(1,0,0,1,0,0)" fill-rule="nonzero" stroke-dasharray="none" stroke-miterlimit="4" stroke-linejoin="miter" stroke-linecap="butt" stroke-width="0.03894041957386487" stroke="#813bad"></path></g><g clip-path="url(&quot;#caa0a4dd0-985b-4280-898e-36290661b1ca3c769648-5488-4b16-b9ff-f8546533a9dc&quot;)"><path d=" M 3.9520055176054614 -7.372395833049508 L 3.9520055176054614 -0.9099274741997299" fill="none" transform="matrix(1,0,0,1,0,0)" fill-rule="nonzero" stroke-dasharray="none" stroke-miterlimit="4" stroke-linejoin="miter" stroke-linecap="butt" stroke-width="0.03894041957386487" stroke="#813bad"></path></g><g clip-path="url(&quot;#caa0a4dd0-985b-4280-898e-36290661b1ca3c769648-5488-4b16-b9ff-f8546533a9dc&quot;)"><path d=" M 3.8521120776407702 -7.372395833049508 L 3.8521120776407702 -0.9099274741997299" fill="none" transform="matrix(1,0,0,1,0,0)" fill-rule="nonzero" stroke-dasharray="none" stroke-miterlimit="4" stroke-linejoin="miter" stroke-linecap="butt" stroke-width="0.03894041957386487" stroke="#813bad"></path></g><g clip-path="url(&quot;#caa0a4dd0-985b-4280-898e-36290661b1ca3c769648-5488-4b16-b9ff-f8546533a9dc&quot;)"><path d=" M 3.7522186376760787 -7.372395833049508 L 3.7522186376760787 -0.9099274741997299" fill="none" transform="matrix(1,0,0,1,0,0)" fill-rule="nonzero" stroke-dasharray="none" stroke-miterlimit="4" stroke-linejoin="miter" stroke-linecap="butt" stroke-width="0.03894041957386487" stroke="#813bad"></path></g><g clip-path="url(&quot;#caa0a4dd0-985b-4280-898e-36290661b1ca3c769648-5488-4b16-b9ff-f8546533a9dc&quot;)"><path d=" M 3.6523573798763245 -7.372395833049508 L 3.6523573798763245 -0.9099274741997299" fill="none" transform="matrix(1,0,0,1,0,0)" fill-rule="nonzero" stroke-dasharray="none" stroke-miterlimit="4" stroke-linejoin="miter" stroke-linecap="butt" stroke-width="0.03894041957386487" stroke="#813bad"></path></g><g clip-path="url(&quot;#caa0a4dd0-985b-4280-898e-36290661b1ca3c769648-5488-4b16-b9ff-f8546533a9dc&quot;)"><path d=" M 3.5524639399116333 -7.372395833049508 L 3.5524639399116333 -0.9099274741997299" fill="none" transform="matrix(1,0,0,1,0,0)" fill-rule="nonzero" stroke-dasharray="none" stroke-miterlimit="4" stroke-linejoin="miter" stroke-linecap="butt" stroke-width="0.03894041957386487" stroke="#813bad"></path></g><g clip-path="url(&quot;#caa0a4dd0-985b-4280-898e-36290661b1ca3c769648-5488-4b16-b9ff-f8546533a9dc&quot;)"><path d=" M 3.4526026821118787 -7.372395833049508 L 3.4526026821118787 -0.9099274741997299" fill="none" transform="matrix(1,0,0,1,0,0)" fill-rule="nonzero" stroke-dasharray="none" stroke-miterlimit="4" stroke-linejoin="miter" stroke-linecap="butt" stroke-width="0.03894041957386487" stroke="#813bad"></path></g><g clip-path="url(&quot;#caa0a4dd0-985b-4280-898e-36290661b1ca3c769648-5488-4b16-b9ff-f8546533a9dc&quot;)"><path d=" M 3.3527092421471876 -7.372395833049508 L 3.3527092421471876 -0.9099274741997299" fill="none" transform="matrix(1,0,0,1,0,0)" fill-rule="nonzero" stroke-dasharray="none" stroke-miterlimit="4" stroke-linejoin="miter" stroke-linecap="butt" stroke-width="0.03894041957386487" stroke="#813bad"></path></g><g clip-path="url(&quot;#caa0a4dd0-985b-4280-898e-36290661b1ca3c769648-5488-4b16-b9ff-f8546533a9dc&quot;)"><path d=" M 3.252815802182496 -7.372395833049508 L 3.252815802182496 -0.9099274741997299" fill="none" transform="matrix(1,0,0,1,0,0)" fill-rule="nonzero" stroke-dasharray="none" stroke-miterlimit="4" stroke-linejoin="miter" stroke-linecap="butt" stroke-width="0.03894041957386487" stroke="#813bad"></path></g><g clip-path="url(&quot;#caa0a4dd0-985b-4280-898e-36290661b1ca3c769648-5488-4b16-b9ff-f8546533a9dc&quot;)"><path d=" M 3.152954544382742 -7.372395833049508 L 3.152954544382742 -0.9099274741997299" fill="none" transform="matrix(1,0,0,1,0,0)" fill-rule="nonzero" stroke-dasharray="none" stroke-miterlimit="4" stroke-linejoin="miter" stroke-linecap="butt" stroke-width="0.03894041957386487" stroke="#813bad"></path></g><g clip-path="url(&quot;#caa0a4dd0-985b-4280-898e-36290661b1ca3c769648-5488-4b16-b9ff-f8546533a9dc&quot;)"><path d=" M 3.0530611044180507 -7.372395833049508 L 3.0530611044180507 -0.9099274741997299" fill="none" transform="matrix(1,0,0,1,0,0)" fill-rule="nonzero" stroke-dasharray="none" stroke-miterlimit="4" stroke-linejoin="miter" stroke-linecap="butt" stroke-width="0.03894041957386487" stroke="#813bad"></path></g><g clip-path="url(&quot;#caa0a4dd0-985b-4280-898e-36290661b1ca3c769648-5488-4b16-b9ff-f8546533a9dc&quot;)"><path d=" M 2.953199846618296 -7.372395833049508 L 2.953199846618296 -0.9099274741997299" fill="none" transform="matrix(1,0,0,1,0,0)" fill-rule="nonzero" stroke-dasharray="none" stroke-miterlimit="4" stroke-linejoin="miter" stroke-linecap="butt" stroke-width="0.03894041957386487" stroke="#813bad"></path></g><g clip-path="url(&quot;#caa0a4dd0-985b-4280-898e-36290661b1ca3c769648-5488-4b16-b9ff-f8546533a9dc&quot;)"><path d=" M 2.853306406653605 -7.372395833049508 L 2.853306406653605 -0.9099274741997299" fill="none" transform="matrix(1,0,0,1,0,0)" fill-rule="nonzero" stroke-dasharray="none" stroke-miterlimit="4" stroke-linejoin="miter" stroke-linecap="butt" stroke-width="0.03894041957386487" stroke="#813bad"></path></g><g clip-path="url(&quot;#baa0a4dd0-985b-4280-898e-36290661b1ca3c769648-5488-4b16-b9ff-f8546533a9dc&quot;)"><path d=" M 4.0565653714860295 -1.2772547047915435 C 4.0565653714860295 -1.2772547047915435 4.148541998876199 -1.302710797256772 4.148541998876199 -1.3981309162952087 L 4.148541998876199 -6.725856139463602 C 4.148541998876199 -6.725856139463602 4.148541998876199 -6.821308440666977 4.0565653714860295 -6.846764533132205 L 2.8465803341817555 -7.181748687962255 C 2.8465803341817555 -7.181748687962255 2.7546037067915856 -7.2072047804274835 2.7546037067915856 -7.111784661389047 L 2.7546037067915856 -1.012234576534702 C 2.7546037067915856 -1.012234576534702 2.7546037067915856 -0.9168144574962653 2.8465803341817555 -0.9422705499614938 Z" fill="none" transform="matrix(1,0,0,1,0,0)" fill-rule="nonzero" stroke-dasharray="none" stroke-miterlimit="4" stroke-linejoin="miter" stroke-linecap="butt" stroke-width="0.03894041957386487" stroke="#813bad"></path></g><g clip-path="url(&quot;#baa0a4dd0-985b-4280-898e-36290661b1ca3c769648-5488-4b16-b9ff-f8546533a9dc&quot;)"><path d=" M 3.760521636229845 -3.9494042238470364 C 3.6507244876553653 -3.9494042238470364 3.5617163123310434 -4.038412399171359 3.5617163123310434 -4.1482095477458385 C 3.5617163123310434 -4.258006696320318 3.6507244876553653 -4.347014871644641 3.760521636229845 -4.347014871644641 C 3.870318784804325 -4.347014871644641 3.9593269601286467 -4.258006696320318 3.9593269601286467 -4.1482095477458385 C 3.9593269601286467 -4.038412399171359 3.870318784804325 -3.9494042238470364 3.760521636229845 -3.9494042238470364" fill="#bab9b4" transform="matrix(1,0,0,1,0,0)" fill-rule="nonzero"></path></g><g clip-path="url(&quot;#baa0a4dd0-985b-4280-898e-36290661b1ca3c769648-5488-4b16-b9ff-f8546533a9dc&quot;)"><path d=" M 3.760521636229845 -3.9494042238470364 C 3.6507244876553653 -3.9494042238470364 3.5617163123310434 -4.038412399171359 3.5617163123310434 -4.1482095477458385 C 3.5617163123310434 -4.258006696320318 3.6507244876553653 -4.347014871644641 3.760521636229845 -4.347014871644641 C 3.870318784804325 -4.347014871644641 3.9593269601286467 -4.258006696320318 3.9593269601286467 -4.1482095477458385 C 3.9593269601286467 -4.038412399171359 3.870318784804325 -3.9494042238470364 3.760521636229845 -3.9494042238470364 Z" fill="none" transform="matrix(1,0,0,1,0,0)" fill-rule="nonzero" stroke-dasharray="none" stroke-miterlimit="4" stroke-linejoin="miter" stroke-linecap="butt" stroke-width="0.04772615060168728" stroke="#813bad"></path></g><g clip-path="url(&quot;#baa0a4dd0-985b-4280-898e-36290661b1ca3c769648-5488-4b16-b9ff-f8546533a9dc&quot;)"><path d=" M 3.3348159584421717 -4.952586669265644 C 3.3273630104507754 -4.857172034712681 3.2477848155441444 -4.783534888068835 3.1520795536901773 -4.783492767981759 C 3.0563742918362107 -4.783450647894683 2.9767313120428116 -4.857017720964592 2.969194382592024 -4.952425758440959 C 2.968808196612779 -4.957124354521773 2.968679467953031 -5.111598746219748 2.968679467953031 -5.116393888795373 C 2.968679466977065 -5.181889854680005 3.003621148274827 -5.242410623378066 3.0603423184464713 -5.275158606621065 C 3.117063488618116 -5.307906589864064 3.18694685241608 -5.307906589864064 3.243668022587724 -5.275158606621065 C 3.3003891927593694 -5.242410623378066 3.335330874057131 -5.181889854680005 3.335330873081165 -5.116393888757481 C 3.335330873081165 -5.111663110549623 3.3351699622564794 -4.957253083181521 3.3348159584421717 -4.952586669265644" fill="#bab9b4" transform="matrix(1,0,0,1,0,0)" fill-rule="nonzero"></path></g><g clip-path="url(&quot;#baa0a4dd0-985b-4280-898e-36290661b1ca3c769648-5488-4b16-b9ff-f8546533a9dc&quot;)"><path d=" M 3.3348159584421717 -4.952586669265644 C 3.3273630104507754 -4.857172034712681 3.2477848155441444 -4.783534888068835 3.1520795536901773 -4.783492767981759 C 3.0563742918362107 -4.783450647894683 2.9767313120428116 -4.857017720964592 2.969194382592024 -4.952425758440959 C 2.968808196612779 -4.957124354521773 2.968679467953031 -5.111598746219748 2.968679467953031 -5.116393888795373 C 2.968679466977065 -5.181889854680005 3.003621148274827 -5.242410623378066 3.0603423184464713 -5.275158606621065 C 3.117063488618116 -5.307906589864064 3.18694685241608 -5.307906589864064 3.243668022587724 -5.275158606621065 C 3.3003891927593694 -5.242410623378066 3.335330874057131 -5.181889854680005 3.335330873081165 -5.116393888757481 C 3.335330873081165 -5.111663110549623 3.3351699622564794 -4.957253083181521 3.3348159584421717 -4.952586669265644 Z" fill="none" transform="matrix(1,0,0,1,0,0)" fill-rule="nonzero" stroke-dasharray="none" stroke-miterlimit="4" stroke-linejoin="miter" stroke-linecap="butt" stroke-width="0.04772615060168728" stroke="#813bad"></path></g><g clip-path="url(&quot;#baa0a4dd0-985b-4280-898e-36290661b1ca3c769648-5488-4b16-b9ff-f8546533a9dc&quot;)"><path d=" M 3.232251398787703 -6.009384601469425 C 3.2248068980435263 -5.913969269114444 3.1452351667324017 -5.840325061261133 3.049529870718893 -5.840274517138602 C 2.9538245747053846 -5.84022397301607 2.874175101473266 -5.913784092564896 2.866629822937555 -6.0091915084798035 C 2.8662436369583104 -6.013890104560616 2.866050543968688 -6.16839667842353 2.866050543968688 -6.173191820999154 C 2.866050543968688 -6.27444869763676 2.9481354609776176 -6.35653361464569 3.0493923376152234 -6.35653361464569 C 3.1506492142528293 -6.35653361464569 3.232734131261759 -6.27444869763676 3.232734131261759 -6.173191820999154 C 3.2327341312617595 -6.168461042753403 3.232605402602011 -6.014018833220364 3.232251398787703 -6.009384601469425" fill="#bab9b4" transform="matrix(1,0,0,1,0,0)" fill-rule="nonzero"></path></g><g clip-path="url(&quot;#baa0a4dd0-985b-4280-898e-36290661b1ca3c769648-5488-4b16-b9ff-f8546533a9dc&quot;)"><path d=" M 3.232251398787703 -6.009384601469425 C 3.2248068980435263 -5.913969269114444 3.1452351667324017 -5.840325061261133 3.049529870718893 -5.840274517138602 C 2.9538245747053846 -5.84022397301607 2.874175101473266 -5.913784092564896 2.866629822937555 -6.0091915084798035 C 2.8662436369583104 -6.013890104560616 2.866050543968688 -6.16839667842353 2.866050543968688 -6.173191820999154 C 2.866050543968688 -6.27444869763676 2.9481354609776176 -6.35653361464569 3.0493923376152234 -6.35653361464569 C 3.1506492142528293 -6.35653361464569 3.232734131261759 -6.27444869763676 3.232734131261759 -6.173191820999154 C 3.2327341312617595 -6.168461042753403 3.232605402602011 -6.014018833220364 3.232251398787703 -6.009384601469425 Z" fill="none" transform="matrix(1,0,0,1,0,0)" fill-rule="nonzero" stroke-dasharray="none" stroke-miterlimit="4" stroke-linejoin="miter" stroke-linecap="butt" stroke-width="0.04772615060168728" stroke="#813bad"></path></g><g clip-path="url(&quot;#baa0a4dd0-985b-4280-898e-36290661b1ca3c769648-5488-4b16-b9ff-f8546533a9dc&quot;)"><path d=" M 3.3348159584421717 -3.2377921927583593 C 3.3273630104507754 -3.333206827311323 3.2477848155441444 -3.4068439739551684 3.1520795536901773 -3.4068860940422443 C 3.0563742918362107 -3.4069282141293202 2.9767313120428116 -3.3333611410594113 2.969194382592024 -3.2379531035830444 C 2.968808196612779 -3.233254507502231 2.968679467953031 -3.078780115804255 2.968679467953031 -3.0739849732286304 C 2.968679466977065 -3.0084890073439983 3.003621148274827 -2.947968238645938 3.0603423184464713 -2.9152202554029394 C 3.117063488618116 -2.88247227215994 3.18694685241608 -2.88247227215994 3.243668022587724 -2.9152202554029394 C 3.3003891927593694 -2.947968238645938 3.335330874057131 -3.0084890073439983 3.335330873081165 -3.0739849732665228 C 3.335330873081165 -3.0787157514743813 3.3351699622564794 -3.233125778842483 3.3348159584421717 -3.2377921927583593" fill="#bab9b4" transform="matrix(1,0,0,1,0,0)" fill-rule="nonzero"></path></g><g clip-path="url(&quot;#baa0a4dd0-985b-4280-898e-36290661b1ca3c769648-5488-4b16-b9ff-f8546533a9dc&quot;)"><path d=" M 3.3348159584421717 -3.2377921927583593 C 3.3273630104507754 -3.333206827311323 3.2477848155441444 -3.4068439739551684 3.1520795536901773 -3.4068860940422443 C 3.0563742918362107 -3.4069282141293202 2.9767313120428116 -3.3333611410594113 2.969194382592024 -3.2379531035830444 C 2.968808196612779 -3.233254507502231 2.968679467953031 -3.078780115804255 2.968679467953031 -3.0739849732286304 C 2.968679466977065 -3.0084890073439983 3.003621148274827 -2.947968238645938 3.0603423184464713 -2.9152202554029394 C 3.117063488618116 -2.88247227215994 3.18694685241608 -2.88247227215994 3.243668022587724 -2.9152202554029394 C 3.3003891927593694 -2.947968238645938 3.335330874057131 -3.0084890073439983 3.335330873081165 -3.0739849732665228 C 3.335330873081165 -3.0787157514743813 3.3351699622564794 -3.233125778842483 3.3348159584421717 -3.2377921927583593 Z" fill="none" transform="matrix(1,0,0,1,0,0)" fill-rule="nonzero" stroke-dasharray="none" stroke-miterlimit="4" stroke-linejoin="miter" stroke-linecap="butt" stroke-width="0.04772615060168728" stroke="#813bad"></path></g><g clip-path="url(&quot;#baa0a4dd0-985b-4280-898e-36290661b1ca3c769648-5488-4b16-b9ff-f8546533a9dc&quot;)"><path d=" M 3.232251398787703 -2.1809620783896415 C 3.2248068980435263 -2.2763774107446224 3.1452351667324017 -2.350021618597933 3.049529870718893 -2.3500721627204646 C 2.9538245747053846 -2.3501227068429955 2.874175101473266 -2.276562587294171 2.866629822937555 -2.181155171379263 C 2.8662436369583104 -2.1764565752984497 2.866050543968688 -2.0219500014355374 2.866050543968688 -2.0171548588599117 C 2.866050543968688 -1.9158979822223055 2.9481354609776176 -1.833813065213377 3.0493923376152234 -1.833813065213377 C 3.1506492142528293 -1.833813065213377 3.232734131261759 -1.9158979822223055 3.232734131261759 -2.0171548588599117 C 3.2327341312617595 -2.0218856371056626 3.232605402602011 -2.176327846638702 3.232251398787703 -2.1809620783896415" fill="#bab9b4" transform="matrix(1,0,0,1,0,0)" fill-rule="nonzero"></path></g><g clip-path="url(&quot;#baa0a4dd0-985b-4280-898e-36290661b1ca3c769648-5488-4b16-b9ff-f8546533a9dc&quot;)"><path d=" M 3.232251398787703 -2.1809620783896415 C 3.2248068980435263 -2.2763774107446224 3.1452351667324017 -2.350021618597933 3.049529870718893 -2.3500721627204646 C 2.9538245747053846 -2.3501227068429955 2.874175101473266 -2.276562587294171 2.866629822937555 -2.181155171379263 C 2.8662436369583104 -2.1764565752984497 2.866050543968688 -2.0219500014355374 2.866050543968688 -2.0171548588599117 C 2.866050543968688 -1.9158979822223055 2.9481354609776176 -1.833813065213377 3.0493923376152234 -1.833813065213377 C 3.1506492142528293 -1.833813065213377 3.232734131261759 -1.9158979822223055 3.232734131261759 -2.0171548588599117 C 3.2327341312617595 -2.0218856371056626 3.232605402602011 -2.176327846638702 3.232251398787703 -2.1809620783896415 Z" fill="none" transform="matrix(1,0,0,1,0,0)" fill-rule="nonzero" stroke-dasharray="none" stroke-miterlimit="4" stroke-linejoin="miter" stroke-linecap="butt" stroke-width="0.04772615060168728" stroke="#813bad"></path></g><g clip-path="url(&quot;#baa0a4dd0-985b-4280-898e-36290661b1ca3c769648-5488-4b16-b9ff-f8546533a9dc&quot;)"><path d=" M 8.328586856058502 -8.335286207966893 C 8.328586856058502 -8.335286207966893 8.328586856058502 -8.472639687918344 8.191233376107052 -8.472639687918344 L 7.522198349230128 -8.472639687918344 C 7.522198349230128 -8.472639687918344 7.384844869278678 -8.472639687918344 7.384844869278678 -8.335286207966893 L 7.384844869278678 0.08450142235599145 C 7.384844869278678 0.08450142235599145 7.384844869278678 0.22185490230744165 7.522198349230128 0.22185490230744165 L 8.191233376107052 0.22185490230744165 C 8.191233376107052 0.22185490230744165 8.328586856058502 0.22185490230744165 8.328586856058502 0.08450142235599145 Z" fill="#bab9b4" transform="matrix(1,0,0,1,0,0)" fill-rule="nonzero"></path></g><g clip-path="url(&quot;#baa0a4dd0-985b-4280-898e-36290661b1ca3c769648-5488-4b16-b9ff-f8546533a9dc&quot;)"><path d=" M 8.328586856058502 -8.335286207966893 C 8.328586856058502 -8.335286207966893 8.328586856058502 -8.472639687918344 8.191233376107052 -8.472639687918344 L 7.522198349230128 -8.472639687918344 C 7.522198349230128 -8.472639687918344 7.384844869278678 -8.472639687918344 7.384844869278678 -8.335286207966893 L 7.384844869278678 0.08450142235599145 C 7.384844869278678 0.08450142235599145 7.384844869278678 0.22185490230744165 7.522198349230128 0.22185490230744165 L 8.191233376107052 0.22185490230744165 C 8.191233376107052 0.22185490230744165 8.328586856058502 0.22185490230744165 8.328586856058502 0.08450142235599145 Z" fill="none" transform="matrix(1,0,0,1,0,0)" fill-rule="nonzero" stroke-dasharray="none" stroke-miterlimit="10" stroke-linejoin="miter" stroke-linecap="butt" stroke-width="0.03894041957386487" stroke="#813bad"></path></g><g clip-path="url(&quot;#baa0a4dd0-985b-4280-898e-36290661b1ca3c769648-5488-4b16-b9ff-f8546533a9dc&quot;)"><path d=" M 2.8208024200671558 -9.110618925630986 L 3.1035227390393896 -9.040139984418785" fill="none" transform="matrix(1,0,0,1,0,0)" fill-rule="nonzero" stroke-dasharray="none" stroke-miterlimit="4" stroke-linejoin="miter" stroke-linecap="butt" stroke-width="0.05149146389932545" stroke="#813bad"></path></g><g clip-path="url(&quot;#baa0a4dd0-985b-4280-898e-36290661b1ca3c769648-5488-4b16-b9ff-f8546533a9dc&quot;)"><path d=" M 3.6798731308975263 -4.2553922480687785 L 3.8266881673404782 -4.035169693404351" fill="none" transform="matrix(1,0,0,1,0,0)" fill-rule="nonzero" stroke-dasharray="none" stroke-miterlimit="4" stroke-linejoin="miter" stroke-linecap="butt" stroke-width="0.04772615060168728" stroke="#813bad"></path></g><g clip-path="url(&quot;#baa0a4dd0-985b-4280-898e-36290661b1ca3c769648-5488-4b16-b9ff-f8546533a9dc&quot;)"><path d=" M 3.1473548476836903 -8.346871787344242 C 3.1473548476836903 -8.29375502837786 3.190414488631766 -8.250695387429783 3.243531247598149 -8.250695387429783 C 3.2966480065645323 -8.250695387429783 3.3397076475126077 -8.29375502837786 3.3397076475126077 -8.346871787344242 C 3.3397076475126077 -8.399988546310624 3.2966480065645323 -8.4430481872587 3.243531247598149 -8.4430481872587 C 3.190414488631766 -8.4430481872587 3.1473548476836903 -8.399988546310624 3.1473548476836903 -8.346871787344242" fill="#bab9b4" transform="matrix(1,0,0,1,0,0)" fill-rule="nonzero"></path></g></g></g><defs><clipPath id="SvgjsClipPath1002"><path d=" M 2.601706241175526 -9.451097051242968 h 5.421099236398948 v 9.201097051242968 h -5.421099236398948 Z"></path></clipPath><clipPath id="baa0a4dd0-985b-4280-898e-36290661b1ca3c769648-5488-4b16-b9ff-f8546533a9dc"><path d=" M 2.4221619429915653 -9.483256213437418 L 9.653558768682956 -9.483256213437418 L 9.653558768682956 1.602469778108107 L 2.4221619429915653 1.602469778108107 Z"></path></clipPath><clipPath id="caa0a4dd0-985b-4280-898e-36290661b1ca3c769648-5488-4b16-b9ff-f8546533a9dc"><path d=" M 4.0565653714860295 -1.2772225226266052 C 4.0565653714860295 -1.2772225226266052 4.148541998876199 -1.302710797256772 4.148541998876199 -1.3981309162952087 L 4.148541998876199 -6.725856139463602 C 4.148541998876199 -6.725856139463602 4.148541998876199 -6.82127625850204 4.0565653714860295 -6.846732350967269 L 2.8465803341817555 -7.181716505797317 C 2.8465803341817555 -7.181716505797317 2.754603706791585 -7.207172598262546 2.754603706791585 -7.1117524792241085 L 2.754603706791585 -1.012234576534702 C 2.754603706791585 -1.012234576534702 2.754603706791585 -0.9167822753313288 2.8465803341817555 -0.9422383677965573 Z"></path></clipPath></defs></svg>